# Rhino

g object_1
v 2 1 -8
v 2 1 -4
v 2 1 0
v 1.767531275749207 1.935859680175781 -8
v 1.767531275749207 1.935859680175781 -4
v 1.767531275749207 1.935859680175781 0
v 1.137580633163452 2.644965171813965 -8
v 1.137580633163452 2.644965171813965 -4
v 1.137580633163452 2.644965171813965 0
v 0.2334010303020477 2.986334323883057 -8
v 0.2334010303020477 2.986334323883057 -4
v 0.2334010303020477 2.986334323883057 0
v -0.70069420337677 2.873239755630493 -8
v -0.70069420337677 2.873239755630493 -4
v -0.70069420337677 2.873239755630493 0
v -1.466297030448914 2.360136985778809 -8
v -1.466297030448914 2.360136985778809 -4
v -1.466297030448914 2.360136985778809 0
v -1.939945578575134 1.486427068710327 -8
v -1.939945578575134 1.486427068710327 0
v -1.936210632324219 0.4989126026630402 -8
v -1.936210632324219 0.4989126026630402 -4
v -1.936210632324219 0.4989126026630402 0
v -1.485100269317627 -0.3395810127258301 -8
v -1.485100269317627 -0.3395810127258301 -4
v -1.485100269317627 -0.3395810127258301 0
v -0.6971575021743774 -0.8745589852333069 -8
v -0.6971575021743774 -0.8745589852333069 -4
v -0.6971575021743774 -0.8745589852333069 0
v 0.2350747883319855 -0.9861369132995606 -8
v 0.2350747883319855 -0.9861369132995606 -4
v 0.2350747883319855 -0.9861369132995606 0
v 1.135425686836243 -0.6464533805847168 -8
v 1.135425686836243 -0.6464533805847168 -4
v 1.135425686836243 -0.6464533805847168 0
v 1.739579081535339 0.01315414626151323 -8
v 1.739579081535339 0.01315414626151323 -4
v 1.739579081535339 0.01315414626151323 0
v 2 1 -8
v 2 1 -4
v 2 1 0
v 1.767531275749207 1.935859680175781 -6
v 1.941012978553772 1.482150077819824 -4
v 2 1 -6
v 1.941012978553772 1.482150077819824 -6
v 1.137580633163452 2.644965171813965 -6
v 1.495201110839844 2.32829737663269 -4
v 1.495201110839844 2.32829737663269 -6
v -0.70069420337677 2.873239755630493 -6
v -0.2403920143842697 2.985500335693359 -4
v 0.2334010303020477 2.986334323883057 -6
v -0.2403920143842697 2.985500335693359 -6
v -1.466297030448914 2.360136985778809 -6
v -1.113454699516296 2.661390542984009 -4
v -1.113454699516296 2.661390542984009 -6
v -1.485100269317627 -0.3395810127258301 -6
v -1.76128077507019 0.05242933332920075 -4
v -1.936210632324219 0.4989126026630402 -6
v -1.76128077507019 0.05242933332920075 -6
v 0.2350747883319855 -0.9861369132995606 -6
v -0.2376815229654312 -0.9858266711235046 -4
v -0.6971575021743774 -0.8745589852333069 -6
v -0.2376815229654312 -0.9858266711235046 -6
v 1.739579081535339 0.01315414626151323 -6
v 1.474850296974182 -0.3508577048778534 -4
v 1.135425686836243 -0.6464533805847168 -6
v 1.474850296974182 -0.3508577048778534 -6
v 1.739579081535339 0.01315414626151323 -2
v 1.135425686836243 -0.6464533805847168 -2
v 1.474850296974182 -0.3508577048778534 -2
v 0.2350747883319855 -0.9861369132995606 -2
v -0.6971575021743774 -0.8745589852333069 -2
v -0.2376815229654312 -0.9858266711235046 -2
v -1.485100269317627 -0.3395810127258301 -2
v -1.936210632324219 0.4989126026630402 -2
v -1.76128077507019 0.05242933332920075 -2
v -1.466297030448914 2.360136985778809 -2
v -0.70069420337677 2.873239755630493 -2
v -1.113454699516296 2.661390542984009 -2
v 0.2334010303020477 2.986334323883057 -2
v -0.2403920143842697 2.985500335693359 -2
v 1.137580633163452 2.644965171813965 -2
v 1.767531275749207 1.935859680175781 -2
v 1.495201110839844 2.32829737663269 -2
v 2 1 -2
v 1.941012978553772 1.482150077819824 -2
v 2 1 -6
v 1.933799147605896 0.489685446023941 -4
v 1.933799147605896 0.489685446023941 -6
v 2 1 -2
v 1.933799147605896 0.489685446023941 -2
v 2 1 -8
v 1.739579081535339 0.01315414626151323 -8
v 1.135425686836243 -0.6464533805847168 -8
v 0.2350747883319855 -0.9861369132995606 -8
v -0.6971575021743774 -0.8745589852333069 -8
v -1.485100269317627 -0.3395810127258301 -8
v -1.936210632324219 0.4989126026630402 -8
v -1.939945578575134 1.486427068710327 -8
v -1.466297030448914 2.360136985778809 -8
v -0.70069420337677 2.873239755630493 -8
v 0.2334010303020477 2.986334323883057 -8
v 1.137580633163452 2.644965171813965 -8
v 1.767531275749207 1.935859680175781 -8
v 2 1 0
v 1.767531275749207 1.935859680175781 0
v 1.137580633163452 2.644965171813965 0
v 0.2334010303020477 2.986334323883057 0
v -0.70069420337677 2.873239755630493 0
v -1.466297030448914 2.360136985778809 0
v -1.939945578575134 1.486427068710327 0
v -1.936210632324219 0.4989126026630402 0
v -1.485100269317627 -0.3395810127258301 0
v -0.6971575021743774 -0.8745589852333069 0
v 0.2350747883319855 -0.9861369132995606 0
v 1.135425686836243 -0.6464533805847168 0
v 1.739579081535339 0.01315414626151323 0
vt 0.9690054059028626 0
vt 0.6511693596839905 0
vt 0.3333333432674408 0
vt 0.9690054059028626 0.07738647609949112
vt 0.6511693596839905 0.07738647609949112
vt 0.3333333432674408 0.07738647609949112
vt 0.9690054059028626 0.1534806489944458
vt 0.6511693596839905 0.1534806489944458
vt 0.3333333432674408 0.1534806489944458
vt 0.9690054059028626 0.2310451716184616
vt 0.6511693596839905 0.2310451716184616
vt 0.3333333432674408 0.2310451716184616
vt 0.9690054059028626 0.3065185248851776
vt 0.6511693596839905 0.3065185248851776
vt 0.3333333432674408 0.3065185248851776
vt 0.9690054059028626 0.3804169297218323
vt 0.6511693596839905 0.3804169297218323
vt 0.3333333432674408 0.3804169297218323
vt 0.9690054059028626 0.460224062204361
vt 0.3333333432674408 0.460224062204361
vt 0.9690054059028626 0.5395131707191467
vt 0.6511693596839905 0.5395131707191467
vt 0.3333333432674408 0.5395131707191467
vt 0.9690054059028626 0.6159045100212097
vt 0.6511693596839905 0.6159045100212097
vt 0.3333333432674408 0.6159045100212097
vt 0.9690054059028626 0.6923165917396545
vt 0.6511693596839905 0.6923165917396545
vt 0.3333333432674408 0.6923165917396545
vt 0.9690054059028626 0.7676239013671875
vt 0.6511693596839905 0.7676239013671875
vt 0.3333333432674408 0.7676239013671875
vt 0.9690054059028626 0.8448464274406433
vt 0.6511693596839905 0.8448464274406433
vt 0.3333333432674408 0.8448464274406433
vt 0.9690054059028626 0.9165281653404236
vt 0.6511693596839905 0.9165281653404236
vt 0.3333333432674408 0.9165281653404236
vt 0.9690054059028626 0.99853515625
vt 0.6511693596839905 0.99853515625
vt 0.3333333432674408 0.99853515625
vt 0.8100873827934265 0.07738647609949112
vt 0.6511693596839905 0.03869323804974556
vt 0.8100873827934265 0
vt 0.8100873827934265 0.03869323804974556
vt 0.8100873827934265 0.1534806489944458
vt 0.6511693596839905 0.1154335662722588
vt 0.8100873827934265 0.1154335662722588
vt 0.8100873827934265 0.3065185248851776
vt 0.6511693596839905 0.268781840801239
vt 0.8100873827934265 0.2310451716184616
vt 0.8100873827934265 0.268781840801239
vt 0.8100873827934265 0.3804169297218323
vt 0.6511693596839905 0.3434677124023438
vt 0.8100873827934265 0.3434677124023438
vt 0.8100873827934265 0.6159045100212097
vt 0.6511693596839905 0.5777088403701782
vt 0.8100873827934265 0.5395131707191467
vt 0.8100873827934265 0.5777088403701782
vt 0.8100873827934265 0.7676239013671875
vt 0.6511693596839905 0.7299702167510986
vt 0.8100873827934265 0.6923165917396545
vt 0.8100873827934265 0.7299702167510986
vt 0.8100873827934265 0.9165281653404236
vt 0.6511693596839905 0.8806872963905335
vt 0.8100873827934265 0.8448464274406433
vt 0.8100873827934265 0.8806872963905335
vt 0.4922513365745544 0.9165281653404236
vt 0.4922513365745544 0.8448464274406433
vt 0.4922513365745544 0.8806872963905335
vt 0.4922513365745544 0.7676239013671875
vt 0.4922513365745544 0.6923165917396545
vt 0.4922513365745544 0.7299702167510986
vt 0.4922513365745544 0.6159045100212097
vt 0.4922513365745544 0.5395131707191467
vt 0.4922513365745544 0.5777088403701782
vt 0.4922513365745544 0.3804169297218323
vt 0.4922513365745544 0.3065185248851776
vt 0.4922513365745544 0.3434677124023438
vt 0.4922513365745544 0.2310451716184616
vt 0.4922513365745544 0.268781840801239
vt 0.4922513365745544 0.1534806489944458
vt 0.4922513365745544 0.07738647609949112
vt 0.4922513365745544 0.1154335662722588
vt 0.4922513365745544 0
vt 0.4922513365745544 0.03869323804974556
vt 0.8100873827934265 0.99853515625
vt 0.6511693596839905 0.9575316905975342
vt 0.8100873827934265 0.9575316905975342
vt 0.4922513365745544 0.99853515625
vt 0.4922513365745544 0.9575316905975342
vt 0.3318684995174408 0.6659342646598816
vt 0.3102621138095856 0.7478100061416626
vt 0.2601372301578522 0.8025357723236084
vt 0.1854377239942551 0.8307183384895325
vt 0.1080930903553963 0.821461021900177
vt 0.04271974787116051 0.7770754098892212
vt 0.005292424000799656 0.7075080275535584
vt 0.00498254457488656 0.6255767941474915
vt 0.044279795140028 0.553087592124939
vt 0.1077996641397476 0.5105169415473938
vt 0.1852988600730896 0.5011337995529175
vt 0.2603160440921783 0.5294561982154846
vt 0.3125812113285065 0.5882886648178101
vt 0.3318684995174408 0.1659342497587204
vt 0.3125812113285065 0.2435798346996307
vt 0.2603160440921783 0.3024122714996338
vt 0.1852988600730896 0.3307346999645233
vt 0.1077996641397476 0.321351557970047
vt 0.044279795140028 0.2787809073925018
vt 0.00498254457488656 0.2062917053699493
vt 0.005292424000799656 0.1243604645133019
vt 0.04271974787116051 0.05479306355118752
vt 0.1080930903553963 0.01040747854858637
vt 0.1854377239942551 0.001150180352851749
vt 0.2601372301578522 0.02933274768292904
vt 0.3102621138095856 0.0840584859251976
vn 1 0 0
vn 1 0 0
vn 1 -2.449212707644755e-016 0
vn 0.8837656378746033 0.4679298102855682 0
vn 0.8837656378746033 0.4679298102855682 0
vn 0.8837656378746033 0.4679298102855682 0
vn 0.5687903165817261 0.8224825859069824 0
vn 0.5687903165817261 0.8224825859069824 0
vn 0.5687903165817261 0.8224825859069824 0
vn 0.1167005151510239 0.9931671619415283 0
vn 0.1167005151510239 0.9931671619415283 0
vn 0.1167005151510239 0.9931671619415283 0
vn -0.350347101688385 0.9366199374198914 0
vn -0.350347101688385 0.9366199374198914 0
vn -0.350347101688385 0.9366199374198914 0
vn -0.7331485152244568 0.6800685524940491 0
vn -0.7331485152244568 0.6800685524940491 0
vn -0.7331485152244568 0.6800685524940491 0
vn -0.9699727892875671 0.2432135045528412 0
vn -0.9699727892875671 0.2432135045528412 0
vn -0.9681053161621094 -0.2505436837673187 0
vn -0.9681053161621094 -0.2505436837673187 0
vn -0.9681053161621094 -0.2505436837673187 0
vn -0.7425501346588135 -0.669790506362915 0
vn -0.7425501346588135 -0.669790506362915 0
vn -0.7425501346588135 -0.669790506362915 0
vn -0.3485787510871887 -0.9372795224189758 0
vn -0.3485787510871887 -0.9372795224189758 0
vn -0.3485787510871887 -0.9372795224189758 0
vn 0.1175373941659927 -0.9930684566497803 0
vn 0.1175373941659927 -0.9930684566497803 0
vn 0.1175373941659927 -0.9930684566497803 0
vn 0.5677128434181213 -0.8232266902923584 0
vn 0.5677128434181213 -0.8232266902923584 0
vn 0.5677128434181213 -0.8232266902923584 0
vn 0.8697895407676697 -0.4934229254722595 0
vn 0.8697895407676697 -0.4934229254722595 0
vn 0.8697895407676697 -0.4934229254722595 0
vn 1 0 0
vn 1 -2.449212707644755e-016 0
vn 1 -2.449212707644755e-016 0
vn 0.8837656378746033 0.4679298102855682 0
vn 0.970506489276886 0.2410750538110733 0
vn 1 0 0
vn 0.970506489276886 0.2410750538110733 0
vn 0.5687903165817261 0.8224825859069824 0
vn 0.7476005554199219 0.6641486287117004 0
vn 0.7476005554199219 0.6641486287117004 0
vn -0.350347101688385 0.9366199374198914 0
vn -0.1201960071921349 0.9927501678466797 0
vn 0.1167005151510239 0.9931671619415283 0
vn -0.1201960071921349 0.9927501678466797 0
vn -0.7331485152244568 0.6800685524940491 0
vn -0.5567273497581482 0.8306952714920044 0
vn -0.5567273497581482 0.8306952714920044 0
vn -0.7425501346588135 -0.669790506362915 0
vn -0.8806403875350952 -0.4737853407859802 0
vn -0.9681053161621094 -0.2505436837673187 0
vn -0.8806403875350952 -0.4737853407859802 0
vn 0.1175373941659927 -0.9930684566497803 0
vn -0.1188407614827156 -0.9929133057594299 0
vn -0.3485787510871887 -0.9372795224189758 0
vn -0.1188407614827156 -0.9929133057594299 0
vn 0.8697895407676697 -0.4934229254722595 0
vn 0.7374251484870911 -0.6754288673400879 0
vn 0.5677128434181213 -0.8232266902923584 0
vn 0.7374251484870911 -0.6754288673400879 0
vn 0.8697895407676697 -0.4934229254722595 0
vn 0.5677128434181213 -0.8232266902923584 0
vn 0.7374251484870911 -0.6754288673400879 0
vn 0.1175373941659927 -0.9930684566497803 0
vn -0.3485787510871887 -0.9372795224189758 0
vn -0.1188407614827156 -0.9929133057594299 0
vn -0.7425501346588135 -0.669790506362915 0
vn -0.9681053161621094 -0.2505436837673187 0
vn -0.8806403875350952 -0.4737853407859802 0
vn -0.7331485152244568 0.6800685524940491 0
vn -0.350347101688385 0.9366199374198914 0
vn -0.5567273497581482 0.8306952714920044 0
vn 0.1167005151510239 0.9931671619415283 0
vn -0.1201960071921349 0.9927501678466797 0
vn 0.5687903165817261 0.8224825859069824 0
vn 0.8837656378746033 0.4679298102855682 0
vn 0.7476005554199219 0.6641486287117004 0
vn 1 0 0
vn 0.970506489276886 0.2410750538110733 0
vn 1 -2.449212707644755e-016 0
vn 0.966899573802948 -0.2551572918891907 0
vn 0.966899573802948 -0.2551572918891907 0
vn 1 0 0
vn 0.966899573802948 -0.2551572918891907 0
vn 0 0 -1
vn 0 0 -1
vn 0 0 -1
vn 0 0 -1
vn 0 0 -1
vn 0 0 -1
vn 0 0 -1
vn 0 0 -1
vn 0 0 -1
vn 0 0 -1
vn 0 0 -1
vn 0 0 -1
vn 0 0 -1
vn 0 0 1
vn 0 0 1
vn 0 0 1
vn 0 0 1
vn 0 0 1
vn 0 0 1
vn 0 0 1
vn 0 0 1
vn 0 0 1
vn 0 0 1
vn 0 0 1
vn 0 0 1
vn 0 0 1
f 5/5/5 43/43/43 45/45/45 42/42/42
f 43/43/43 2/2/2 44/44/44 45/45/45
f 86/86/86 85/85/85 2/2/2 43/43/43
f 83/83/83 86/86/86 43/43/43 5/5/5
f 8/8/8 47/47/47 48/48/48 46/46/46
f 47/47/47 5/5/5 42/42/42 48/48/48
f 84/84/84 83/83/83 5/5/5 47/47/47
f 82/82/82 84/84/84 47/47/47 8/8/8
f 14/14/14 50/50/50 52/52/52 49/49/49
f 50/50/50 11/11/11 51/51/51 52/52/52
f 81/81/81 80/80/80 11/11/11 50/50/50
f 78/78/78 81/81/81 50/50/50 14/14/14
f 17/17/17 54/54/54 55/55/55 53/53/53
f 54/54/54 14/14/14 49/49/49 55/55/55
f 79/79/79 78/78/78 14/14/14 54/54/54
f 77/77/77 79/79/79 54/54/54 17/17/17
f 25/25/25 57/57/57 59/59/59 56/56/56
f 57/57/57 22/22/22 58/58/58 59/59/59
f 76/76/76 75/75/75 22/22/22 57/57/57
f 74/74/74 76/76/76 57/57/57 25/25/25
f 31/31/31 61/61/61 63/63/63 60/60/60
f 61/61/61 28/28/28 62/62/62 63/63/63
f 73/73/73 72/72/72 28/28/28 61/61/61
f 71/71/71 73/73/73 61/61/61 31/31/31
f 37/37/37 65/65/65 67/67/67 64/64/64
f 65/65/65 34/34/34 66/66/66 67/67/67
f 70/70/70 69/69/69 34/34/34 65/65/65
f 68/68/68 70/70/70 65/65/65 37/37/37
f 40/40/40 88/88/88 89/89/89 87/87/87
f 88/88/88 37/37/37 64/64/64 89/89/89
f 91/91/91 68/68/68 37/37/37 88/88/88
f 90/90/90 91/91/91 88/88/88 40/40/40
f 1/1/1 4/4/4 45/45/45
f 4/4/4 7/7/7 48/48/48
f 7/7/7 10/10/10 51/51/51
f 10/10/10 13/13/13 52/52/52
f 13/13/13 16/16/16 55/55/55
f 16/16/16 19/19/19 53/53/53
f 19/19/19 21/21/21 58/58/58
f 21/21/21 24/24/24 59/59/59
f 24/24/24 27/27/27 62/62/62
f 27/27/27 30/30/30 63/63/63
f 30/30/30 33/33/33 66/66/66
f 33/33/33 36/36/36 67/67/67
f 36/36/36 39/39/39 89/89/89
f 41/41/41 38/38/38 91/91/91
f 38/38/38 35/35/35 70/70/70
f 35/35/35 32/32/32 69/69/69
f 32/32/32 29/29/29 73/73/73
f 29/29/29 26/26/26 72/72/72
f 26/26/26 23/23/23 76/76/76
f 23/23/23 20/20/20 75/75/75
f 20/20/20 18/18/18 77/77/77
f 18/18/18 15/15/15 79/79/79
f 15/15/15 12/12/12 81/81/81
f 12/12/12 9/9/9 80/80/80
f 9/9/9 6/6/6 84/84/84
f 6/6/6 3/3/3 86/86/86
f 3/3/3 85/85/85 86/86/86
f 44/44/44 1/1/1 45/45/45
f 39/39/39 87/87/87 89/89/89
f 90/90/90 41/41/41 91/91/91
f 42/42/42 45/45/45 4/4/4
f 86/86/86 83/83/83 6/6/6
f 46/46/46 48/48/48 7/7/7
f 8/8/8 46/46/46 11/11/11
f 48/48/48 42/42/42 4/4/4
f 83/83/83 84/84/84 6/6/6
f 84/84/84 82/82/82 9/9/9
f 82/82/82 8/8/8 80/80/80
f 49/49/49 52/52/52 13/13/13
f 51/51/51 11/11/11 46/46/46
f 52/52/52 51/51/51 10/10/10
f 80/80/80 81/81/81 12/12/12
f 11/11/11 80/80/80 8/8/8
f 81/81/81 78/78/78 15/15/15
f 53/53/53 55/55/55 16/16/16
f 17/17/17 53/53/53 19/19/19
f 55/55/55 49/49/49 13/13/13
f 78/78/78 79/79/79 15/15/15
f 79/79/79 77/77/77 18/18/18
f 77/77/77 17/17/17 20/20/20
f 56/56/56 59/59/59 24/24/24
f 25/25/25 56/56/56 28/28/28
f 58/58/58 22/22/22 19/19/19
f 59/59/59 58/58/58 21/21/21
f 75/75/75 76/76/76 23/23/23
f 22/22/22 75/75/75 20/20/20
f 76/76/76 74/74/74 26/26/26
f 74/74/74 25/25/25 72/72/72
f 60/60/60 63/63/63 30/30/30
f 31/31/31 60/60/60 34/34/34
f 62/62/62 28/28/28 56/56/56
f 63/63/63 62/62/62 27/27/27
f 72/72/72 73/73/73 29/29/29
f 28/28/28 72/72/72 25/25/25
f 73/73/73 71/71/71 32/32/32
f 71/71/71 31/31/31 69/69/69
f 64/64/64 67/67/67 36/36/36
f 66/66/66 34/34/34 60/60/60
f 67/67/67 66/66/66 33/33/33
f 69/69/69 70/70/70 35/35/35
f 34/34/34 69/69/69 31/31/31
f 70/70/70 68/68/68 38/38/38
f 89/89/89 64/64/64 36/36/36
f 68/68/68 91/91/91 38/38/38
f 7/7/7 51/51/51 46/46/46
f 24/24/24 62/62/62 56/56/56
f 30/30/30 66/66/66 60/60/60
f 69/69/69 32/32/32 71/71/71
f 72/72/72 26/26/26 74/74/74
f 80/80/80 9/9/9 82/82/82
f 17/17/17 19/19/19 22/22/22
f 20/20/20 17/17/17 22/22/22
f 92/92/92 93/93/93 95/95/95
f 93/93/93 94/94/94 95/95/95
f 95/95/95 96/96/96 98/98/98
f 96/96/96 97/97/97 98/98/98
f 98/98/98 99/99/99 101/101/101
f 99/99/99 100/100/100 101/101/101
f 101/101/101 102/102/102 104/104/104
f 102/102/102 103/103/103 104/104/104
f 104/104/104 92/92/92 95/95/95
f 95/95/95 98/98/98 104/104/104
f 98/98/98 101/101/101 104/104/104
f 105/105/105 106/106/106 108/108/108
f 106/106/106 107/107/107 108/108/108
f 108/108/108 109/109/109 111/111/111
f 109/109/109 110/110/110 111/111/111
f 111/111/111 112/112/112 114/114/114
f 112/112/112 113/113/113 114/114/114
f 114/114/114 115/115/115 116/116/116
f 116/116/116 117/117/117 105/105/105
f 105/105/105 108/108/108 114/114/114
f 108/108/108 111/111/111 114/114/114
f 114/114/114 116/116/116 105/105/105
g object_2
v -2 -11 0
v -2 -11 3
v 2 -11 0
v 2 -11 3
v 0 -11 0
v 0 -11 3
v 2 -11 0
v 2 -11 3
v 2 -3 0
v 2 -3 3
v 2 -7 0
v 2 -7 3
v 2 -3 0
v 2 -3 3
v -2 -3 0
v -2 -3 3
v 0 -3 0
v 0 -3 3
v -2 -3 0
v -2 -3 3
v -2 -11 0
v -2 -11 3
v -2 -7 0
v -2 -7 3
v -2 -11 0
v 2 -11 0
v -2 -3 0
v 2 -3 0
v 0 -11 0
v 0 -3 0
v 2 -7 0
v -2 -7 0
v -2 -11 3
v -2 -3 3
v 2 -11 3
v 2 -3 3
v 0 -11 3
v 0 -3 3
v 2 -7 3
v -2 -7 3
vt 0.99853515625 0
vt 0.75 0
vt 0.99853515625 0.3313802182674408
vt 0.75 0.3313802182674408
vt 0.99853515625 0.1656901091337204
vt 0.75 0.1656901091337204
vt 0.5 0.699999988079071
vt 0.5 0.886950671672821
vt 0.99853515625 0.699999988079071
vt 0.99853515625 0.886950671672821
vt 0.749267578125 0.699999988079071
vt 0.749267578125 0.886950671672821
vt 0.74853515625 0
vt 0.5 0
vt 0.74853515625 0.3313802182674408
vt 0.5 0.3313802182674408
vt 0.74853515625 0.1656901091337204
vt 0.5 0.1656901091337204
vt 0.5 0.4000000059604645
vt 0.5 0.5869506597518921
vt 0.99853515625 0.4000000059604645
vt 0.99853515625 0.5869506597518921
vt 0.749267578125 0.4000000059604645
vt 0.749267578125 0.5869506597518921
vt 0 0.5
vt 0 0.749267578125
vt 0.49853515625 0.5
vt 0.49853515625 0.749267578125
vt 0 0.6246337890625
vt 0.49853515625 0.6246337890625
vt 0.249267578125 0.749267578125
vt 0.249267578125 0.5
vt 0.49853515625 0
vt 0 0
vt 0.49853515625 0.249267578125
vt 0 0.249267578125
vt 0.49853515625 0.1246337890625
vt 0 0.1246337890625
vt 0.249267578125 0.249267578125
vt 0.249267578125 0
vn 0 -1 0
vn 0 -1 0
vn 0 -1 0
vn 0 -1 0
vn 0 -1 0
vn 0 -1 0
vn 1 0 0
vn 1 0 0
vn 1 0 0
vn 1 0 0
vn 1 0 0
vn 1 0 0
vn 0 1 0
vn 0 1 0
vn 0 1 0
vn 0 1 0
vn 0 1 0
vn 0 1 0
vn -1 0 0
vn -1 0 0
vn -1 0 0
vn -1 0 0
vn -1 0 0
vn -1 0 0
vn 0 0 -1
vn 0 0 -1
vn 0 0 -1
vn 0 0 -1
vn 0 0 -1
vn 0 0 -1
vn 0 0 -1
vn 0 0 -1
vn 0 0 1
vn 0 0 1
vn 0 0 1
vn 0 0 1
vn 0 0 1
vn 0 0 1
vn 0 0 1
vn 0 0 1
f 118/118/118 122/122/122 123/123/123
f 122/122/122 120/120/120 121/121/121
f 121/121/121 123/123/123 122/122/122
f 123/123/123 119/119/119 118/118/118
f 124/124/124 128/128/128 125/125/125
f 128/128/128 126/126/126 129/129/129
f 127/127/127 129/129/129 126/126/126
f 129/129/129 125/125/125 128/128/128
f 130/130/130 134/134/134 135/135/135
f 134/134/134 132/132/132 133/133/133
f 133/133/133 135/135/135 134/134/134
f 135/135/135 131/131/131 130/130/130
f 136/136/136 140/140/140 137/137/137
f 140/140/140 138/138/138 141/141/141
f 139/139/139 141/141/141 138/138/138
f 141/141/141 137/137/137 140/140/140
f 143/143/143 146/146/146 148/148/148
f 146/146/146 142/142/142 149/149/149
f 145/145/145 148/148/148 147/147/147
f 144/144/144 147/147/147 149/149/149
f 148/148/148 146/146/146 149/149/149
f 147/147/147 148/148/148 149/149/149
f 150/150/150 154/154/154 157/157/157
f 154/154/154 152/152/152 156/156/156
f 156/156/156 153/153/153 155/155/155
f 155/155/155 151/151/151 157/157/157
f 157/157/157 154/154/154 156/156/156
f 156/156/156 155/155/155 157/157/157
g object_3
v -5 -3 0
v -5 -3 6
v -5 4 0
v -5 4 6
v -5 0.5 0
v -5 0.5 6
v -5 -3 3
v -5 4 3
v -5 4 0
v -5 4 6
v 5 4 0
v 5 4 6
v 0 4 0
v 0 4 6
v -5 4 3
v 5 4 3
v 5 4 0
v 5 4 6
v 5 -3 0
v 5 -3 6
v 5 0.5 0
v 5 0.5 6
v 5 4 3
v 5 -3 3
v 5 -3 0
v 5 -3 6
v -5 -3 0
v -5 -3 6
v 0 -3 0
v 0 -3 6
v -5 -3 3
v 5 -3 3
v -5 -3 0
v -5 4 0
v 5 -3 0
v 5 4 0
v -5 0.5 0
v 0 4 0
v 5 0.5 0
v 0 -3 0
v -5 -3 6
v 5 -3 6
v -5 4 6
v 5 4 6
v -5 0.5 6
v 0 4 6
v 5 0.5 6
v 0 -3 6
vt 0.99853515625 0
vt 0.7272727489471436 0
vt 0.99853515625 0.3164728283882141
vt 0.7272727489471436 0.3164728283882141
vt 0.99853515625 0.1582364141941071
vt 0.7272727489471436 0.1582364141941071
vt 0.8629039525985718 0
vt 0.8629039525985718 0.3164728283882141
vt 0.99853515625 0.4117647111415863
vt 0.7272727489471436 0.4117647111415863
vt 0.99853515625 0.863868772983551
vt 0.7272727489471436 0.863868772983551
vt 0.99853515625 0.6378167271614075
vt 0.7272727489471436 0.6378167271614075
vt 0.8629039525985718 0.4117647111415863
vt 0.8629039525985718 0.863868772983551
vt 0.7258079051971436 0
vt 0.4545454680919647 0
vt 0.7258079051971436 0.3164728283882141
vt 0.4545454680919647 0.3164728283882141
vt 0.7258079051971436 0.1582364141941071
vt 0.4545454680919647 0.1582364141941071
vt 0.5901766419410706 0
vt 0.5901766419410706 0.3164728283882141
vt 0.7258079051971436 0.4117647111415863
vt 0.4545454680919647 0.4117647111415863
vt 0.7258079051971436 0.863868772983551
vt 0.4545454680919647 0.863868772983551
vt 0.7258079051971436 0.6378167271614075
vt 0.4545454680919647 0.6378167271614075
vt 0.5901766419410706 0.863868772983551
vt 0.5901766419410706 0.4117647111415863
vt 0 0.5
vt 0 0.8171564340591431
vt 0.4530806243419647 0.5
vt 0.4530806243419647 0.8171564340591431
vt 0 0.6585782170295715
vt 0.2265403121709824 0.8171564340591431
vt 0.4530806243419647 0.6585782170295715
vt 0.2265403121709824 0.5
vt 0.4530806243419647 0
vt 0 0
vt 0.4530806243419647 0.3171564340591431
vt 0 0.3171564340591431
vt 0.4530806243419647 0.1585782170295715
vt 0.2265403121709824 0.3171564340591431
vt 0 0.1585782170295715
vt 0.2265403121709824 0
vn -1 0 0
vn -1 0 0
vn -1 0 0
vn -1 0 0
vn -1 0 0
vn -1 0 0
vn -1 0 0
vn -1 0 0
vn 0 1 0
vn 0 1 0
vn 0 1 0
vn 0 1 0
vn 0 1 0
vn 0 1 0
vn 0 1 0
vn 0 1 0
vn 1 0 0
vn 1 0 0
vn 1 0 0
vn 1 0 0
vn 1 0 0
vn 1 0 0
vn 1 0 0
vn 1 0 0
vn 0 -1 0
vn 0 -1 0
vn 0 -1 0
vn 0 -1 0
vn 0 -1 0
vn 0 -1 0
vn 0 -1 0
vn 0 -1 0
vn 0 0 -1
vn 0 0 -1
vn 0 0 -1
vn 0 0 -1
vn 0 0 -1
vn 0 0 -1
vn 0 0 -1
vn 0 0 -1
vn 0 0 1
vn 0 0 1
vn 0 0 1
vn 0 0 1
vn 0 0 1
vn 0 0 1
vn 0 0 1
vn 0 0 1
f 158/158/158 164/164/164 162/162/162
f 162/162/162 165/165/165 160/160/160
f 161/161/161 165/165/165 163/163/163
f 163/163/163 164/164/164 159/159/159
f 164/164/164 163/163/163 162/162/162
f 162/162/162 163/163/163 165/165/165
f 166/166/166 172/172/172 170/170/170
f 170/170/170 173/173/173 168/168/168
f 169/169/169 173/173/173 171/171/171
f 171/171/171 172/172/172 167/167/167
f 172/172/172 171/171/171 170/170/170
f 170/170/170 171/171/171 173/173/173
f 174/174/174 180/180/180 178/178/178
f 178/178/178 181/181/181 176/176/176
f 177/177/177 181/181/181 179/179/179
f 179/179/179 180/180/180 175/175/175
f 180/180/180 179/179/179 178/178/178
f 178/178/178 179/179/179 181/181/181
f 182/182/182 189/189/189 186/186/186
f 186/186/186 188/188/188 184/184/184
f 185/185/185 188/188/188 187/187/187
f 187/187/187 189/189/189 183/183/183
f 189/189/189 187/187/187 186/186/186
f 186/186/186 187/187/187 188/188/188
f 191/191/191 195/195/195 194/194/194
f 194/194/194 197/197/197 190/190/190
f 193/193/193 196/196/196 195/195/195
f 192/192/192 197/197/197 196/196/196
f 195/195/195 197/197/197 194/194/194
f 196/196/196 197/197/197 195/195/195
f 198/198/198 205/205/205 202/202/202
f 202/202/202 203/203/203 200/200/200
f 203/203/203 204/204/204 201/201/201
f 204/204/204 205/205/205 199/199/199
f 205/205/205 203/203/203 202/202/202
f 203/203/203 205/205/205 204/204/204
